{
	"asset":{
		"version":"2.0",
		"generator":"Created using the official Cinema 4D glTF Exporter 1.000x284978"
	},
	"scenes":[{
		"nodes":[0,
		1,
		2,
		3,
		4,
		5,
		6,
		7,
		8,
		9,
		10,
		11]
	}],
	"nodes":[{
		"name":"立方体.7",
		"translation":[0.0,
		0.0,
		3378.62744140625],
		"rotation":[0.0,
		0.0,
		0.0,
		-1.0],
		"scale":[1.0,
		1.0,
		1.0],
		"mesh":0
	},
	{
		"name":"挤压.3",
		"translation":[-339.8943176269531,
		-163.6826934814453,
		1556.333740234375],
		"rotation":[0.0,
		0.0,
		0.0,
		-1.0],
		"scale":[1.0,
		1.0,
		1.0],
		"mesh":1
	},
	{
		"name":"立方体.6",
		"translation":[-349.5485534667969,
		25.087800979614259,
		420.99951171875],
		"rotation":[0.0,
		0.0,
		0.0,
		-1.0],
		"scale":[1.0,
		1.0,
		1.0],
		"mesh":2
	},
	{
		"name":"立方体.4",
		"translation":[0.0,
		0.0,
		1686.435546875],
		"rotation":[0.0,
		0.0,
		0.0,
		-1.0],
		"scale":[1.0,
		1.0,
		1.0],
		"mesh":3
	},
	{
		"name":"立方体.5",
		"translation":[-348.5843811035156,
		25.189422607421876,
		422.6756286621094],
		"rotation":[0.0,
		0.0,
		0.0,
		-1.0],
		"scale":[1.0,
		1.0,
		1.0],
		"mesh":4
	},
	{
		"name":"立方体.3",
		"translation":[0.0,
		0.0,
		-2440.708740234375],
		"rotation":[0.0,
		0.0,
		0.0,
		-1.0],
		"scale":[1.0,
		1.0,
		1.0],
		"mesh":5
	},
	{
		"name":"立方体.2",
		"translation":[-1859.5325927734376,
		0.0,
		-2648.83544921875],
		"rotation":[0.0,
		0.0,
		0.0,
		-1.0],
		"scale":[1.0,
		1.0,
		1.0],
		"mesh":6
	},
	{
		"name":"挤压.2",
		"translation":[-339.8943176269531,
		-163.6826934814453,
		4.940374851226807],
		"rotation":[0.0,
		0.0,
		0.0,
		-1.0],
		"scale":[1.0,
		1.0,
		1.0],
		"mesh":7
	},
	{
		"name":"挤压.1",
		"translation":[-339.8943176269531,
		-163.6826934814453,
		-838.1967163085938],
		"rotation":[0.0,
		0.0,
		0.0,
		-1.0],
		"scale":[1.0,
		1.0,
		1.0],
		"mesh":8
	},
	{
		"name":"挤压",
		"translation":[-339.8943176269531,
		-163.6826934814453,
		565.6654663085938],
		"rotation":[0.0,
		0.0,
		0.0,
		-1.0],
		"scale":[1.0,
		1.0,
		1.0],
		"mesh":9
	},
	{
		"name":"立方体.1",
		"translation":[-1859.5325927734376,
		0.0,
		0.0],
		"rotation":[0.0,
		0.0,
		0.0,
		-1.0],
		"scale":[1.0,
		1.0,
		1.0],
		"mesh":10
	},
	{
		"name":"立方体",
		"mesh":11
	}],
	"meshes":[{
		"name":"立方体.7",
		"primitives":[{
			"attributes":{
				"POSITION":1,
				"NORMAL":2,
				"TEXCOORD_0":3
			},
			"indices":0
		}]
	},
	{
		"name":"挤压.3",
		"primitives":[{
			"attributes":{
				"POSITION":5,
				"NORMAL":6,
				"TEXCOORD_0":7
			},
			"indices":4
		}]
	},
	{
		"name":"立方体.6",
		"primitives":[{
			"attributes":{
				"POSITION":9,
				"NORMAL":10,
				"TEXCOORD_0":11
			},
			"indices":8
		}]
	},
	{
		"name":"立方体.4",
		"primitives":[{
			"attributes":{
				"POSITION":13,
				"NORMAL":14,
				"TEXCOORD_0":15
			},
			"indices":12
		}]
	},
	{
		"name":"立方体.5",
		"primitives":[{
			"attributes":{
				"POSITION":17,
				"NORMAL":18,
				"TEXCOORD_0":19
			},
			"indices":16
		}]
	},
	{
		"name":"立方体.3",
		"primitives":[{
			"attributes":{
				"POSITION":21,
				"NORMAL":22,
				"TEXCOORD_0":23
			},
			"indices":20
		}]
	},
	{
		"name":"立方体.2",
		"primitives":[{
			"attributes":{
				"POSITION":25,
				"NORMAL":26,
				"TEXCOORD_0":27
			},
			"indices":24
		}]
	},
	{
		"name":"挤压.2",
		"primitives":[{
			"attributes":{
				"POSITION":29,
				"NORMAL":30,
				"TEXCOORD_0":31
			},
			"indices":28
		}]
	},
	{
		"name":"挤压.1",
		"primitives":[{
			"attributes":{
				"POSITION":33,
				"NORMAL":34,
				"TEXCOORD_0":35
			},
			"indices":32
		}]
	},
	{
		"name":"挤压",
		"primitives":[{
			"attributes":{
				"POSITION":37,
				"NORMAL":38,
				"TEXCOORD_0":39
			},
			"indices":36
		}]
	},
	{
		"name":"立方体.1",
		"primitives":[{
			"attributes":{
				"POSITION":41,
				"NORMAL":42,
				"TEXCOORD_0":43
			},
			"indices":40
		}]
	},
	{
		"name":"立方体",
		"primitives":[{
			"attributes":{
				"POSITION":45,
				"NORMAL":46,
				"TEXCOORD_0":47
			},
			"indices":44
		}]
	}],
	"accessors":[{
		"bufferView":0,
		"type":"SCALAR",
		"componentType":5123,
		"count":144,
		"byteOffset":0,
		"min":[0],
		"max":[71]
	},
	{
		"bufferView":1,
		"type":"VEC3",
		"componentType":5126,
		"count":72,
		"byteOffset":0,
		"min":[-415.71466064453127,
		-181.94393920898438,
		-845.3512573242188],
		"max":[35.382015228271487,
		309.9542236328125,
		845.3512573242188]
	},
	{
		"bufferView":1,
		"type":"VEC3",
		"componentType":5126,
		"count":72,
		"byteOffset":12,
		"min":[0.0,
		-1.0,
		-1.0],
		"max":[1.0,
		1.0,
		1.0]
	},
	{
		"bufferView":1,
		"type":"VEC2",
		"componentType":5126,
		"count":72,
		"byteOffset":24,
		"min":[0.0,
		0.0],
		"max":[1.0,
		1.0]
	},
	{
		"bufferView":2,
		"type":"SCALAR",
		"componentType":5123,
		"count":636,
		"byteOffset":0,
		"min":[0],
		"max":[225]
	},
	{
		"bufferView":3,
		"type":"VEC3",
		"componentType":5126,
		"count":226,
		"byteOffset":0,
		"min":[-14.833508491516114,
		-18.204347610473634,
		-5.2280073165893559],
		"max":[0.2696884274482727,
		-0.5089957118034363,
		971.77197265625]
	},
	{
		"bufferView":3,
		"type":"VEC3",
		"componentType":5126,
		"count":226,
		"byteOffset":12,
		"min":[-1.0,
		-0.9999905824661255,
		-1.0],
		"max":[1.0,
		0.9999973773956299,
		1.0]
	},
	{
		"bufferView":3,
		"type":"VEC2",
		"componentType":5126,
		"count":226,
		"byteOffset":24,
		"min":[0.0,
		0.0],
		"max":[1.0,
		1.0]
	},
	{
		"bufferView":4,
		"type":"SCALAR",
		"componentType":5123,
		"count":36,
		"byteOffset":0,
		"min":[0],
		"max":[23]
	},
	{
		"bufferView":5,
		"type":"VEC3",
		"componentType":5126,
		"count":24,
		"byteOffset":0,
		"min":[-5.877867221832275,
		-190.96023559570313,
		-124.11803436279297],
		"max":[5.877867221832275,
		190.96023559570313,
		124.11803436279297]
	},
	{
		"bufferView":5,
		"type":"VEC3",
		"componentType":5126,
		"count":24,
		"byteOffset":12,
		"min":[-1.0,
		-1.0,
		-1.0],
		"max":[1.0,
		1.0,
		1.0]
	},
	{
		"bufferView":5,
		"type":"VEC2",
		"componentType":5126,
		"count":24,
		"byteOffset":24,
		"min":[0.0,
		0.0],
		"max":[1.0,
		1.0]
	},
	{
		"bufferView":6,
		"type":"SCALAR",
		"componentType":5123,
		"count":18,
		"byteOffset":0,
		"min":[0],
		"max":[11]
	},
	{
		"bufferView":7,
		"type":"VEC3",
		"componentType":5126,
		"count":12,
		"byteOffset":0,
		"min":[-354.61724853515627,
		-181.94393920898438,
		-845.3512573242188],
		"max":[35.382015228271487,
		309.9542236328125,
		845.3512573242188]
	},
	{
		"bufferView":7,
		"type":"VEC3",
		"componentType":5126,
		"count":12,
		"byteOffset":12,
		"min":[0.0,
		-1.0,
		0.0],
		"max":[1.0,
		1.0,
		0.0]
	},
	{
		"bufferView":7,
		"type":"VEC2",
		"componentType":5126,
		"count":12,
		"byteOffset":24,
		"min":[0.0,
		0.0],
		"max":[1.0,
		1.0]
	},
	{
		"bufferView":8,
		"type":"SCALAR",
		"componentType":5123,
		"count":288,
		"byteOffset":0,
		"min":[0],
		"max":[119]
	},
	{
		"bufferView":9,
		"type":"VEC3",
		"componentType":5126,
		"count":120,
		"byteOffset":0,
		"min":[-11.936473846435547,
		-207.13336181640626,
		-140.89187622070313],
		"max":[11.936473846435547,
		207.13336181640626,
		140.89187622070313]
	},
	{
		"bufferView":9,
		"type":"VEC3",
		"componentType":5126,
		"count":120,
		"byteOffset":12,
		"min":[-1.0,
		-1.0,
		-1.0],
		"max":[1.0,
		1.0,
		1.0]
	},
	{
		"bufferView":9,
		"type":"VEC2",
		"componentType":5126,
		"count":120,
		"byteOffset":24,
		"min":[0.6666666269302368,
		0.0],
		"max":[0.8333332538604736,
		1.0]
	},
	{
		"bufferView":10,
		"type":"SCALAR",
		"componentType":5123,
		"count":18,
		"byteOffset":0,
		"min":[0],
		"max":[11]
	},
	{
		"bufferView":11,
		"type":"VEC3",
		"componentType":5126,
		"count":12,
		"byteOffset":0,
		"min":[-354.61724853515627,
		-181.94393920898438,
		-845.3512573242188],
		"max":[35.382015228271487,
		181.94393920898438,
		845.3512573242188]
	},
	{
		"bufferView":11,
		"type":"VEC3",
		"componentType":5126,
		"count":12,
		"byteOffset":12,
		"min":[0.0,
		-1.0,
		0.0],
		"max":[1.0,
		1.0,
		0.0]
	},
	{
		"bufferView":11,
		"type":"VEC2",
		"componentType":5126,
		"count":12,
		"byteOffset":24,
		"min":[0.0,
		0.0],
		"max":[1.0,
		1.0]
	},
	{
		"bufferView":12,
		"type":"SCALAR",
		"componentType":5123,
		"count":36,
		"byteOffset":0,
		"min":[0],
		"max":[23]
	},
	{
		"bufferView":13,
		"type":"VEC3",
		"componentType":5126,
		"count":24,
		"byteOffset":0,
		"min":[-354.61724853515627,
		-181.94393920898438,
		-845.3512573242188],
		"max":[354.61724853515627,
		181.94393920898438,
		845.3512573242188]
	},
	{
		"bufferView":13,
		"type":"VEC3",
		"componentType":5126,
		"count":24,
		"byteOffset":12,
		"min":[-1.0,
		-1.0,
		-1.0],
		"max":[1.0,
		1.0,
		1.0]
	},
	{
		"bufferView":13,
		"type":"VEC2",
		"componentType":5126,
		"count":24,
		"byteOffset":24,
		"min":[0.0,
		0.0],
		"max":[1.0,
		1.0]
	},
	{
		"bufferView":14,
		"type":"SCALAR",
		"componentType":5123,
		"count":636,
		"byteOffset":0,
		"min":[0],
		"max":[225]
	},
	{
		"bufferView":15,
		"type":"VEC3",
		"componentType":5126,
		"count":226,
		"byteOffset":0,
		"min":[-14.833508491516114,
		-18.204347610473634,
		-5.2280073165893559],
		"max":[0.2696884274482727,
		-0.5089957118034363,
		283.7720031738281]
	},
	{
		"bufferView":15,
		"type":"VEC3",
		"componentType":5126,
		"count":226,
		"byteOffset":12,
		"min":[-1.0,
		-0.9999905824661255,
		-1.0],
		"max":[1.0,
		0.9999973773956299,
		1.0]
	},
	{
		"bufferView":15,
		"type":"VEC2",
		"componentType":5126,
		"count":226,
		"byteOffset":24,
		"min":[0.0,
		0.0],
		"max":[1.0,
		1.0]
	},
	{
		"bufferView":16,
		"type":"SCALAR",
		"componentType":5123,
		"count":636,
		"byteOffset":0,
		"min":[0],
		"max":[225]
	},
	{
		"bufferView":17,
		"type":"VEC3",
		"componentType":5126,
		"count":226,
		"byteOffset":0,
		"min":[-14.833508491516114,
		-18.204347610473634,
		-5.2280073165893559],
		"max":[0.2696884274482727,
		-0.5089957118034363,
		554.77197265625]
	},
	{
		"bufferView":17,
		"type":"VEC3",
		"componentType":5126,
		"count":226,
		"byteOffset":12,
		"min":[-1.0,
		-0.9999905228614807,
		-1.0],
		"max":[1.0,
		0.9999973773956299,
		1.0]
	},
	{
		"bufferView":17,
		"type":"VEC2",
		"componentType":5126,
		"count":226,
		"byteOffset":24,
		"min":[0.0,
		0.0],
		"max":[1.0,
		1.0]
	},
	{
		"bufferView":18,
		"type":"SCALAR",
		"componentType":5123,
		"count":636,
		"byteOffset":0,
		"min":[0],
		"max":[225]
	},
	{
		"bufferView":19,
		"type":"VEC3",
		"componentType":5126,
		"count":226,
		"byteOffset":0,
		"min":[-14.833508491516114,
		-18.204347610473634,
		-5.2280073165893559],
		"max":[0.2696884274482727,
		-0.5089957118034363,
		994.77197265625]
	},
	{
		"bufferView":19,
		"type":"VEC3",
		"componentType":5126,
		"count":226,
		"byteOffset":12,
		"min":[-1.0,
		-0.9999905228614807,
		-1.0],
		"max":[1.0,
		0.9999973773956299,
		1.0]
	},
	{
		"bufferView":19,
		"type":"VEC2",
		"componentType":5126,
		"count":226,
		"byteOffset":24,
		"min":[0.0,
		0.0],
		"max":[1.0,
		1.0]
	},
	{
		"bufferView":20,
		"type":"SCALAR",
		"componentType":5123,
		"count":36,
		"byteOffset":0,
		"min":[0],
		"max":[23]
	},
	{
		"bufferView":21,
		"type":"VEC3",
		"componentType":5126,
		"count":24,
		"byteOffset":0,
		"min":[-354.61724853515627,
		-181.94393920898438,
		-845.3512573242188],
		"max":[354.61724853515627,
		181.94393920898438,
		845.3512573242188]
	},
	{
		"bufferView":21,
		"type":"VEC3",
		"componentType":5126,
		"count":24,
		"byteOffset":12,
		"min":[-1.0,
		-1.0,
		-1.0],
		"max":[1.0,
		1.0,
		1.0]
	},
	{
		"bufferView":21,
		"type":"VEC2",
		"componentType":5126,
		"count":24,
		"byteOffset":24,
		"min":[0.0,
		0.0],
		"max":[1.0,
		1.0]
	},
	{
		"bufferView":22,
		"type":"SCALAR",
		"componentType":5123,
		"count":108,
		"byteOffset":0,
		"min":[0],
		"max":[47]
	},
	{
		"bufferView":23,
		"type":"VEC3",
		"componentType":5126,
		"count":48,
		"byteOffset":0,
		"min":[-354.61724853515627,
		-181.94393920898438,
		-845.3512573242188],
		"max":[35.382015228271487,
		309.7301330566406,
		845.3512573242188]
	},
	{
		"bufferView":23,
		"type":"VEC3",
		"componentType":5126,
		"count":48,
		"byteOffset":12,
		"min":[0.0,
		-1.0,
		0.0],
		"max":[1.0,
		1.0,
		0.0]
	},
	{
		"bufferView":23,
		"type":"VEC2",
		"componentType":5126,
		"count":48,
		"byteOffset":24,
		"min":[0.0,
		0.0],
		"max":[1.0,
		1.0]
	}],
	"bufferViews":[{
		"buffer":0,
		"byteOffset":0,
		"byteLength":288,
		"target":34963
	},
	{
		"buffer":0,
		"byteOffset":288,
		"byteLength":2304,
		"target":34962,
		"byteStride":32
	},
	{
		"buffer":1,
		"byteOffset":0,
		"byteLength":1272,
		"target":34963
	},
	{
		"buffer":1,
		"byteOffset":1272,
		"byteLength":7232,
		"target":34962,
		"byteStride":32
	},
	{
		"buffer":2,
		"byteOffset":0,
		"byteLength":72,
		"target":34963
	},
	{
		"buffer":2,
		"byteOffset":72,
		"byteLength":768,
		"target":34962,
		"byteStride":32
	},
	{
		"buffer":3,
		"byteOffset":0,
		"byteLength":36,
		"target":34963
	},
	{
		"buffer":3,
		"byteOffset":36,
		"byteLength":384,
		"target":34962,
		"byteStride":32
	},
	{
		"buffer":4,
		"byteOffset":0,
		"byteLength":576,
		"target":34963
	},
	{
		"buffer":4,
		"byteOffset":576,
		"byteLength":3840,
		"target":34962,
		"byteStride":32
	},
	{
		"buffer":5,
		"byteOffset":0,
		"byteLength":36,
		"target":34963
	},
	{
		"buffer":5,
		"byteOffset":36,
		"byteLength":384,
		"target":34962,
		"byteStride":32
	},
	{
		"buffer":6,
		"byteOffset":0,
		"byteLength":72,
		"target":34963
	},
	{
		"buffer":6,
		"byteOffset":72,
		"byteLength":768,
		"target":34962,
		"byteStride":32
	},
	{
		"buffer":7,
		"byteOffset":0,
		"byteLength":1272,
		"target":34963
	},
	{
		"buffer":7,
		"byteOffset":1272,
		"byteLength":7232,
		"target":34962,
		"byteStride":32
	},
	{
		"buffer":8,
		"byteOffset":0,
		"byteLength":1272,
		"target":34963
	},
	{
		"buffer":8,
		"byteOffset":1272,
		"byteLength":7232,
		"target":34962,
		"byteStride":32
	},
	{
		"buffer":9,
		"byteOffset":0,
		"byteLength":1272,
		"target":34963
	},
	{
		"buffer":9,
		"byteOffset":1272,
		"byteLength":7232,
		"target":34962,
		"byteStride":32
	},
	{
		"buffer":10,
		"byteOffset":0,
		"byteLength":72,
		"target":34963
	},
	{
		"buffer":10,
		"byteOffset":72,
		"byteLength":768,
		"target":34962,
		"byteStride":32
	},
	{
		"buffer":11,
		"byteOffset":0,
		"byteLength":216,
		"target":34963
	},
	{
		"buffer":11,
		"byteOffset":216,
		"byteLength":1536,
		"target":34962,
		"byteStride":32
	}],
	"buffers":[{
		"uri":"data:application/octet-stream;base64,",
		"byteLength":2592
	},
	{
		"uri":"data:application/octet-stream;base64,",
		"byteLength":8504
	},
	{
		"uri":"data:application/octet-stream;base64,",
		"byteLength":840
	},
	{
		"uri":"data:application/octet-stream;base64,",
		"byteLength":420
	},
	{
		"uri":"data:application/octet-stream;base64,",
		"byteLength":4416
	},
	{
		"uri":"data:application/octet-stream;base64,",
		"byteLength":420
	},
	{
		"uri":"data:application/octet-stream;base64,",
		"byteLength":840
	},
	{
		"uri":"data:application/octet-stream;base64,",
		"byteLength":8504
	},
	{
		"uri":"data:application/octet-stream;base64,",
		"byteLength":8504
	},
	{
		"uri":"data:application/octet-stream;base64,",
		"byteLength":8504
	},
	{
		"uri":"data:application/octet-stream;base64,",
		"byteLength":840
	},
	{
		"uri":"data:application/octet-stream;base64,",
		"byteLength":1752
	}]
}