{
	"nodes":[{
		"name":"门框.2",
		"translation":[0.0,
		230.93104553222657,
		-213.37594604492188],
		"rotation":[0.0,
		0.0,
		0.0,
		-1.0],
		"scale":[1.0,
		1.0,
		1.0],
		"mesh":0
	}],
	"asset":{
		"version":"2.0",
		"generator":"Created using the official Cinema 4D glTF Exporter 1.000x284978"
	},
	"scenes":[{
		"nodes":[0]
	}],
	"meshes":[{
		"name":"门框.2",
		"primitives":[{
			"attributes":{
				"POSITION":1,
				"NORMAL":2,
				"TEXCOORD_0":3
			},
			"indices":0
		}]
	}],
	"bufferViews":[{
		"buffer":0,
		"byteOffset":0,
		"byteLength":144,
		"target":34963
	},
	{
		"buffer":0,
		"byteOffset":144,
		"byteLength":1280,
		"target":34962,
		"byteStride":32
	}],
	"accessors":[{
		"bufferView":0,
		"type":"SCALAR",
		"componentType":5123,
		"count":72,
		"byteOffset":0,
		"min":[0],
		"max":[39]
	},
	{
		"bufferView":1,
		"type":"VEC3",
		"componentType":5126,
		"count":40,
		"byteOffset":0,
		"min":[-648.92529296875,
		-221.96429443359376,
		-1248.739013671875],
		"max":[648.92529296875,
		292.5139465332031,
		144.7952423095703]
	},
	{
		"bufferView":1,
		"type":"VEC3",
		"componentType":5126,
		"count":40,
		"byteOffset":12,
		"min":[-1.0,
		-1.0,
		-1.0],
		"max":[1.0,
		1.0,
		0.0]
	},
	{
		"bufferView":1,
		"type":"VEC2",
		"componentType":5126,
		"count":40,
		"byteOffset":24,
		"min":[0.006008964963257313,
		0.006008964963257313],
		"max":[0.5232760906219482,
		0.9939910173416138]
	}],
	"buffers":[{
		"uri":"data:application/octet-stream;base64,",
		"byteLength":1424
	}]
}