{
	"asset":{
		"version":"2.0",
		"generator":"Created using the official Cinema 4D glTF Exporter 1.000x284978"
	},
	"scenes":[{
		"nodes":[0,
		1]
	}],
	"meshes":[{
		"name":"门",
		"primitives":[{
			"attributes":{
				"POSITION":1
			},
			"indices":0
		}]
	},
	{
		"name":"门框",
		"primitives":[{
			"attributes":{
				"POSITION":3,
				"NORMAL":4,
				"TEXCOORD_0":5
			},
			"indices":2
		}]
	}],
	"nodes":[{
		"name":"门",
		"translation":[0.0,
		232.21463012695313,
		-453.4754638671875],
		"rotation":[0.0,
		0.0,
		0.0,
		-1.0],
		"scale":[1.0,
		1.0,
		1.0],
		"mesh":0
	},
	{
		"name":"门框",
		"translation":[0.0,
		230.93104553222657,
		-461.6056213378906],
		"rotation":[0.0,
		0.0,
		0.0,
		-1.0],
		"scale":[1.0,
		1.0,
		1.0],
		"mesh":1
	}],
	"accessors":[{
		"min":[0],
		"bufferView":0,
		"type":"SCALAR",
		"componentType":5123,
		"count":132,
		"byteOffset":0,
		"max":[23]
	},
	{
		"min":[-102.5315170288086,
		-208.5380859375,
		-19.8549861907959],
		"bufferView":1,
		"type":"VEC3",
		"componentType":5126,
		"count":24,
		"byteOffset":0,
		"max":[102.5315170288086,
		208.5380859375,
		4.0536394119262699]
	},
	{
		"min":[0],
		"bufferView":2,
		"type":"SCALAR",
		"componentType":5123,
		"count":144,
		"byteOffset":0,
		"max":[63]
	},
	{
		"min":[-118.91146087646485,
		-224.66429138183595,
		-16.14275360107422],
		"bufferView":3,
		"type":"VEC3",
		"componentType":5126,
		"count":64,
		"byteOffset":0,
		"max":[118.91146087646485,
		224.66429138183595,
		13.787881851196289]
	},
	{
		"min":[-1.0,
		-1.0,
		-1.0],
		"bufferView":3,
		"type":"VEC3",
		"componentType":5126,
		"count":64,
		"byteOffset":12,
		"max":[1.0,
		1.0,
		0.933526337146759]
	},
	{
		"min":[0.0,
		0.0],
		"bufferView":3,
		"type":"VEC2",
		"componentType":5126,
		"count":64,
		"byteOffset":24,
		"max":[1.0,
		1.0]
	}],
	"bufferViews":[{
		"buffer":0,
		"byteOffset":0,
		"byteLength":264,
		"target":34963
	},
	{
		"buffer":0,
		"byteOffset":264,
		"byteLength":288,
		"target":34962
	},
	{
		"buffer":1,
		"byteOffset":0,
		"byteLength":288,
		"target":34963
	},
	{
		"buffer":1,
		"byteOffset":288,
		"byteLength":2048,
		"target":34962,
		"byteStride":32
	}],
	"buffers":[{
		"uri":"data:application/octet-stream;base64,",
		"byteLength":552
	},
	{
		"uri":"data:application/octet-stream;base64,",
		"byteLength":2336
	}]
}