{
	"asset":{
		"version":"2.0",
		"generator":"Created using the official Cinema 4D glTF Exporter 1.000x284978"
	},
	"scenes":[{
		"nodes":[0]
	}],
	"nodes":[{
		"name":"饮料",
		"translation":[-1321.136474609375,
		228.549072265625,
		0.0],
		"rotation":[0.0,
		0.0,
		0.0,
		-1.0],
		"scale":[1.0,
		1.0,
		1.0],
		"children":[1,
		2]
	},
	{
		"name":"盖子",
		"translation":[0.0,
		15.4192476272583,
		0.0],
		"rotation":[0.0,
		0.0,
		0.0,
		-1.0],
		"scale":[1.0,
		1.0,
		1.0],
		"mesh":0
	},
	{
		"name":"瓶身",
		"translation":[0.0,
		-15.4192476272583,
		0.0],
		"rotation":[0.0,
		0.0,
		0.0,
		-1.0],
		"scale":[1.0,
		1.0,
		1.0],
		"mesh":1
	}],
	"meshes":[{
		"name":"盖子",
		"primitives":[{
			"attributes":{
				"POSITION":1,
				"NORMAL":2,
				"TEXCOORD_0":3
			},
			"indices":0,
			"material":0
		}]
	},
	{
		"name":"瓶身",
		"primitives":[{
			"attributes":{
				"POSITION":5,
				"NORMAL":6,
				"TEXCOORD_0":7
			},
			"indices":4,
			"material":1
		}]
	}],
	"accessors":[{
		"bufferView":0,
		"max":[51],
		"type":"SCALAR",
		"componentType":5123,
		"count":108,
		"byteOffset":0,
		"min":[0]
	},
	{
		"bufferView":1,
		"max":[4.845247745513916,
		1.965595006942749,
		4.771637916564941],
		"type":"VEC3",
		"componentType":5126,
		"count":52,
		"byteOffset":0,
		"min":[-4.553043842315674,
		-1.965595006942749,
		-4.771637916564941]
	},
	{
		"bufferView":1,
		"max":[0.9927205443382263,
		1.0,
		0.9848078489303589],
		"type":"VEC3",
		"componentType":5126,
		"count":52,
		"byteOffset":12,
		"min":[-1.0,
		-1.0,
		-0.9848078489303589]
	},
	{
		"bufferView":1,
		"max":[1.0,
		1.0],
		"type":"VEC2",
		"componentType":5126,
		"count":52,
		"byteOffset":24,
		"min":[0.0,
		0.0]
	},
	{
		"bufferView":2,
		"max":[60],
		"type":"SCALAR",
		"componentType":5123,
		"count":189,
		"byteOffset":0,
		"min":[0]
	},
	{
		"bufferView":3,
		"max":[9.818533897399903,
		28.97667121887207,
		9.669367790222168],
		"type":"VEC3",
		"componentType":5126,
		"count":61,
		"byteOffset":0,
		"min":[-9.22640323638916,
		-23.309560775756837,
		-9.669367790222168]
	},
	{
		"bufferView":3,
		"max":[0.9430463314056397,
		0.8276047110557556,
		0.9848078489303589],
		"type":"VEC3",
		"componentType":5126,
		"count":61,
		"byteOffset":12,
		"min":[-1.0,
		-1.0,
		-0.9985531568527222]
	},
	{
		"bufferView":3,
		"max":[1.0,
		1.0],
		"type":"VEC2",
		"componentType":5126,
		"count":61,
		"byteOffset":24,
		"min":[0.0,
		0.0]
	}],
	"bufferViews":[{
		"buffer":0,
		"byteOffset":0,
		"byteLength":216,
		"target":34963
	},
	{
		"buffer":0,
		"byteOffset":216,
		"byteLength":1664,
		"target":34962,
		"byteStride":32
	},
	{
		"buffer":1,
		"byteOffset":0,
		"byteLength":378,
		"target":34963
	},
	{
		"buffer":1,
		"byteOffset":380,
		"byteLength":1952,
		"target":34962,
		"byteStride":32
	}],
	"buffers":[{
		"byteLength":1880,
		"uri":"data:application/octet-stream;base64,"
	},
	{
		"byteLength":2332,
		"uri":"data:application/octet-stream;base64,"
	}],
	"materials":[{
		"emissiveFactor":[0.0,
		0.0,
		0.0],
		"pbrMetallicRoughness":{
			"baseColorFactor":[0.0,
			0.6166666666666667,
			1.0,
			1.0],
			"metallicFactor":1.0,
			"roughnessFactor":0.32
		},
		"alphaMode":"OPAQUE",
		"doubleSided":true,
		"name":"材质.5"
	},
	{
		"emissiveFactor":[0.0,
		0.0,
		0.0],
		"pbrMetallicRoughness":{
			"baseColorFactor":[0.8,
			0.8,
			0.8,
			1.0],
			"metallicFactor":1.0,
			"roughnessFactor":0.32
		},
		"alphaMode":"OPAQUE",
		"doubleSided":true,
		"name":"材质.4"
	}]
}